<svg data-v-423bf9ae="" xmlns="http://www.w3.org/2000/svg" viewBox="0 0 298.26402638556556 60" class="font"><!----><!----><!----><g data-v-423bf9ae="" id="b996267d-f9ce-4624-8c0d-6ebfe11720e2" fill="black" transform="matrix(5.424954891204834,0,0,5.424954891204834,-3.4177067279815674,-11.82640266418457)"><path d="M2.76 9.31L2.76 9.31Q2.76 10.28 3.19 10.86Q3.63 11.45 4.48 11.45L4.48 11.45Q4.76 11.45 5.00 11.43Q5.24 11.41 5.39 11.38L5.39 11.38L5.39 7.59Q5.19 7.46 4.88 7.38Q4.56 7.29 4.24 7.29L4.24 7.29Q2.76 7.29 2.76 9.31ZM7.48 2.18L7.48 12.81Q7.20 12.89 6.83 12.97Q6.47 13.05 6.07 13.10Q5.67 13.16 5.26 13.20Q4.84 13.23 4.47 13.23L4.47 13.23Q3.56 13.23 2.84 12.96Q2.13 12.70 1.64 12.20Q1.15 11.70 0.89 11.00Q0.63 10.29 0.63 9.41L0.63 9.41Q0.63 8.51 0.85 7.79Q1.08 7.07 1.50 6.57Q1.92 6.06 2.53 5.80Q3.14 5.53 3.92 5.53L3.92 5.53Q4.35 5.53 4.70 5.61Q5.04 5.70 5.39 5.85L5.39 5.85L5.39 2.52L7.48 2.18ZM12.25 11.59L12.25 11.59Q12.56 11.59 12.84 11.58Q13.12 11.56 13.29 11.54L13.29 11.54L13.29 9.95Q13.16 9.93 12.91 9.90Q12.66 9.87 12.45 9.87L12.45 9.87Q12.15 9.87 11.89 9.90Q11.63 9.94 11.44 10.04Q11.24 10.14 11.13 10.30Q11.02 10.47 11.02 10.72L11.02 10.72Q11.02 11.21 11.35 11.40Q11.68 11.59 12.25 11.59ZM12.08 5.49L12.08 5.49Q13.01 5.49 13.62 5.70Q14.24 5.91 14.61 6.30Q14.98 6.69 15.13 7.25Q15.29 7.81 15.29 8.50L15.29 8.50L15.29 12.84Q14.84 12.94 14.04 13.07Q13.24 13.20 12.11 13.20L12.11 13.20Q11.40 13.20 10.81 13.08Q10.23 12.95 9.81 12.66Q9.39 12.38 9.17 11.91Q8.95 11.45 8.95 10.78L8.95 10.78Q8.95 10.14 9.21 9.69Q9.46 9.24 9.90 8.97Q10.33 8.71 10.89 8.59Q11.45 8.47 12.05 8.47L12.05 8.47Q12.46 8.47 12.77 8.50Q13.09 8.54 13.29 8.60L13.29 8.60L13.29 8.40Q13.29 7.87 12.96 7.55Q12.64 7.22 11.84 7.22L11.84 7.22Q11.31 7.22 10.79 7.30Q10.28 7.38 9.90 7.52L9.90 7.52L9.63 5.84Q9.81 5.78 10.09 5.72Q10.36 5.66 10.68 5.61Q11.00 5.56 11.36 5.52Q11.72 5.49 12.08 5.49ZM18.65 5.68L20.10 7.92L21.56 5.68L23.72 5.68L21.20 9.23Q22.04 10.28 22.72 11.27Q23.41 12.26 23.81 13.05L23.81 13.05L21.57 13.05Q21.46 12.84 21.29 12.52Q21.13 12.21 20.92 11.87Q20.71 11.52 20.48 11.18Q20.24 10.84 20.02 10.56L20.02 10.56Q19.81 10.82 19.59 11.14Q19.38 11.47 19.18 11.79Q18.98 12.12 18.80 12.45Q18.61 12.77 18.47 13.05L18.47 13.05L16.34 13.05Q16.51 12.70 16.80 12.22Q17.09 11.75 17.44 11.23Q17.78 10.72 18.16 10.21Q18.54 9.70 18.90 9.25L18.90 9.25Q18.27 8.37 17.64 7.47Q17.01 6.57 16.39 5.68L16.39 5.68L18.65 5.68ZM24.25 9.42L24.25 9.42Q24.25 8.44 24.55 7.71Q24.85 6.97 25.34 6.48Q25.83 5.99 26.47 5.74Q27.10 5.49 27.78 5.49L27.78 5.49Q29.34 5.49 30.25 6.45Q31.16 7.41 31.16 9.27L31.16 9.27Q31.16 9.45 31.15 9.67Q31.14 9.88 31.12 10.05L31.12 10.05L26.39 10.05Q26.46 10.70 26.99 11.07Q27.52 11.45 28.42 11.45L28.42 11.45Q28.99 11.45 29.55 11.35Q30.10 11.24 30.45 11.09L30.45 11.09L30.73 12.78Q30.56 12.87 30.28 12.95Q30.00 13.03 29.66 13.10Q29.32 13.16 28.92 13.20Q28.53 13.24 28.14 13.24L28.14 13.24Q27.15 13.24 26.41 12.95Q25.68 12.66 25.19 12.14Q24.71 11.63 24.48 10.93Q24.25 10.23 24.25 9.42ZM26.39 8.62L29.15 8.62Q29.13 8.36 29.06 8.11Q28.98 7.85 28.82 7.66Q28.66 7.46 28.41 7.34Q28.17 7.21 27.80 7.21L27.80 7.21Q27.45 7.21 27.20 7.33Q26.95 7.45 26.78 7.64Q26.61 7.84 26.52 8.10Q26.43 8.36 26.39 8.62L26.39 8.62ZM34.55 9.31L34.55 9.31Q34.55 10.28 34.99 10.86Q35.42 11.45 36.27 11.45L36.27 11.45Q36.55 11.45 36.79 11.43Q37.03 11.41 37.18 11.38L37.18 11.38L37.18 7.59Q36.99 7.46 36.67 7.38Q36.36 7.29 36.04 7.29L36.04 7.29Q34.55 7.29 34.55 9.31ZM39.27 2.18L39.27 12.81Q38.99 12.89 38.63 12.97Q38.26 13.05 37.86 13.10Q37.46 13.16 37.05 13.20Q36.64 13.23 36.26 13.23L36.26 13.23Q35.35 13.23 34.64 12.96Q33.92 12.70 33.43 12.20Q32.94 11.70 32.68 11.00Q32.42 10.29 32.42 9.41L32.42 9.41Q32.42 8.51 32.65 7.79Q32.87 7.07 33.29 6.57Q33.71 6.06 34.32 5.80Q34.93 5.53 35.71 5.53L35.71 5.53Q36.15 5.53 36.49 5.61Q36.83 5.70 37.18 5.85L37.18 5.85L37.18 2.52L39.27 2.18ZM44.04 11.59L44.04 11.59Q44.35 11.59 44.63 11.58Q44.91 11.56 45.08 11.54L45.08 11.54L45.08 9.95Q44.95 9.93 44.70 9.90Q44.45 9.87 44.24 9.87L44.24 9.87Q43.95 9.87 43.69 9.90Q43.43 9.94 43.23 10.04Q43.04 10.14 42.92 10.30Q42.81 10.47 42.81 10.72L42.81 10.72Q42.81 11.21 43.14 11.40Q43.47 11.59 44.04 11.59ZM43.88 5.49L43.88 5.49Q44.80 5.49 45.42 5.70Q46.03 5.91 46.40 6.30Q46.77 6.69 46.93 7.25Q47.08 7.81 47.08 8.50L47.08 8.50L47.08 12.84Q46.63 12.94 45.84 13.07Q45.04 13.20 43.90 13.20L43.90 13.20Q43.19 13.20 42.61 13.08Q42.03 12.95 41.61 12.66Q41.19 12.38 40.96 11.91Q40.74 11.45 40.74 10.78L40.74 10.78Q40.74 10.14 41.00 9.69Q41.26 9.24 41.69 8.97Q42.13 8.71 42.69 8.59Q43.25 8.47 43.85 8.47L43.85 8.47Q44.25 8.47 44.57 8.50Q44.88 8.54 45.08 8.60L45.08 8.60L45.08 8.40Q45.08 7.87 44.76 7.55Q44.44 7.22 43.64 7.22L43.64 7.22Q43.11 7.22 42.59 7.30Q42.07 7.38 41.69 7.52L41.69 7.52L41.43 5.84Q41.61 5.78 41.88 5.72Q42.15 5.66 42.48 5.61Q42.80 5.56 43.16 5.52Q43.51 5.49 43.88 5.49ZM50.44 5.68L51.90 7.92L53.35 5.68L55.51 5.68L52.99 9.23Q53.83 10.28 54.52 11.27Q55.20 12.26 55.61 13.05L55.61 13.05L53.37 13.05Q53.26 12.84 53.09 12.52Q52.92 12.21 52.71 11.87Q52.50 11.52 52.27 11.18Q52.04 10.84 51.81 10.56L51.81 10.56Q51.60 10.82 51.39 11.14Q51.17 11.47 50.97 11.79Q50.78 12.12 50.59 12.45Q50.40 12.77 50.26 13.05L50.26 13.05L48.13 13.05Q48.30 12.70 48.59 12.22Q48.89 11.75 49.23 11.23Q49.57 10.72 49.95 10.21Q50.33 9.70 50.69 9.25L50.69 9.25Q50.06 8.37 49.43 7.47Q48.80 6.57 48.19 5.68L48.19 5.68L50.44 5.68Z"></path></g><!----><!----></svg>